<?xml version="1.0" encoding="UTF-8" standalone="no"?>
<svg xmlns="http://www.w3.org/2000/svg" viewBox="0 0 300 300" width="300" height="300">
  <path d="M150 30c-8.284 0-15 6.716-15 15 0 5.878 3.379 10.957 8.291 13.418C131.646 64.64 120 76.716 120 90c0 15.355 12.645 30 30 30s30-14.645 30-30c0-13.284-11.646-25.36-23.291-31.582C161.621 55.957 165 50.878 165 45c0-8.284-6.716-15-15-15zm0 15c2.761 0 5 2.239 5 5s-2.239 5-5 5-5-2.239-5-5 2.239-5 5-5zM135 90c0-8.284 6.716-15 15-15s15 6.716 15 15-6.716 15-15 15-15-6.716-15-15zm-5-15c-15 15-35 17-55 5 1.018 25.056 20.589 45 45 45v85l-40 40c15 15 35 15 50 0-15-15-10-35 5-50 15 15 20 35 5 50 15 15 35 15 50 0l-40-40v-85c24.411 0 43.982-19.944 45-45-20 12-40 10-55-5z" fill="black"/>
</svg>